<?xml version="1.0" encoding="utf-8"?>
<!-- Generator: Adobe Illustrator 25.2.0, SVG Export Plug-In . SVG Version: 6.00 Build 0)  -->
<svg version="1.1" id="Capa_1" xmlns="http://www.w3.org/2000/svg" xmlns:xlink="http://www.w3.org/1999/xlink" x="0px" y="0px"
	 viewBox="0 0 512 512" style="enable-background:new 0 0 512 512;" xml:space="preserve">
<style type="text/css">
	.st0{fill:url(#SVGID_1_);}
	.st1{opacity:0.2;fill:#FFE265;enable-background:new    ;}
	.st2{fill:#FFFFFF;}
	.st3{fill:#FFE265;}
	.st4{fill:#FFD522;}
</style>
<g>
	<g>
		<g>
			
				<linearGradient id="SVGID_1_" gradientUnits="userSpaceOnUse" x1="23.8207" y1="170.7308" x2="459.531" y2="422.289" gradientTransform="matrix(1 0 0 -1 0 514)">
				<stop  offset="0" style="stop-color:#FFF6D2;stop-opacity:0"/>
				<stop  offset="1" style="stop-color:#FFF1B7"/>
			</linearGradient>
			<path class="st0" d="M16.1,302.9c18.7,64,72.7,194.6,163.9,182.8C271.5,474,235.8,356,319.5,339.8c36.9-7.1,61.9,56.7,98.8,54.7
				c47.6-2.6,71.8-49.7,85.1-89.3c28.2-84-14-226.4-112.9-251c-86.2-21.5-96.3,83.9-171.3,53.2c-42.1-17.2-37.9-68.6-89.3-78.9
				C-25.3-2.8-8.8,217.7,16.1,302.9z"/>
		</g>
		<g>
			<g>
				<path class="st1" d="M450.4,110H61.6c-7.1,0-12.9,5.8-12.9,12.9v270.4c0,7.1,5.8,12.9,12.9,12.9h152.3l-4.9,23.9
					c-2,9.7-8.7,17.4-17.4,20.9c-4.3,1.8-7.3,5.8-7.3,10.5v0.2c0,6.2,5,11.2,11.2,11.2h121.1c6.2,0,11.2-5,11.2-11.2v-0.2
					c0-4.7-2.9-8.7-7.3-10.5c-8.7-3.6-15.4-11.2-17.4-20.9l-4.9-23.9h152.3c7.1,0,12.9-5.8,12.9-12.9V123
					C463.4,115.8,457.6,110,450.4,110z"/>
				<g>
					<g>
						<g>
							<g>
								<path class="st2" d="M195.5,453h121.1c6.2,0,11.2-5,11.2-11.2v-0.2c0-4.7-2.9-8.7-7.3-10.5c-8.7-3.6-15.4-11.2-17.4-20.9
									l-6.6-32.1h-80.9l-6.6,32.1c-2,9.7-8.7,17.4-17.4,20.9c-4.3,1.8-7.3,5.8-7.3,10.5v0.2C184.3,448,189.3,453,195.5,453
									L195.5,453z"/>
								<path class="st2" d="M450.4,386.3H61.6c-7.1,0-12.9-5.8-12.9-12.9V103c0-7.1,5.8-12.9,12.9-12.9h388.9
									c7.1,0,12.9,5.8,12.9,12.9v270.4C463.4,380.5,457.6,386.3,450.4,386.3z"/>
								<path class="st2" d="M48.6,283.7v89.6c0,7.1,5.8,12.9,12.9,12.9h388.9c7.1,0,12.9-5.8,12.9-12.9v-89.6L48.6,283.7z"/>
							</g>
							<path class="st3" d="M315.8,341.7c20.2-46.3,33-104.8,33-133.2c0-51.3-41.6-92.9-92.9-92.9s-92.9,41.6-92.9,92.9
								c0,28.5,12.8,86.9,33,133.2H315.8z"/>
							<g>
								<path class="st4" d="M281.3,261.2c0.7,0,1,0.1,1.9,1c0.5-3.5,1-7,1.5-10.6c-1-0.3-2.1-0.5-3.4-0.5c-5.4,0-8.2,3.1-10,5.1
									c-1.6,1.7-1.8,1.8-2.6,1.8c-0.8,0-1.1-0.1-2.6-1.8c-1.9-2-4.7-5.1-10-5.1c-5.4,0-8.2,3.1-10,5.1c-1.6,1.7-1.8,1.8-2.6,1.8
									c-0.8,0-1.1-0.1-2.6-1.8c-1.9-2-4.7-5.1-10-5.1c-1.3,0-2.5,0.2-3.5,0.5c0.2,0.6,1.3,7.6,1.7,10.5c0.9-0.9,1.2-1,1.8-1
									c0.8,0,1.1,0.1,2.6,1.8c1.9,2,4.7,5.1,10,5.1c5.4,0,8.2-3.1,10-5.1c1.6-1.7,1.8-1.8,2.6-1.8c0.8,0,1.1,0.1,2.6,1.8
									c1.9,2,4.7,5.1,10,5.1c5.4,0,8.2-3.1,10-5.1C280.2,261.3,280.5,261.2,281.3,261.2L281.3,261.2z"/>
							</g>
							<g>
								<g>
									<path class="st4" d="M238.8,337.8c-0.3,0-0.5,0.1-0.8,0.1c-2.4,0-4.5-1.8-4.9-4.2l-13.9-88.2l-1.6-9.9l-4.5-28.8
										c-0.4-2.7,1.4-5.3,4.2-5.7s5.3,1.4,5.7,4.2l3.8,24.1l1.7,10.8l14.5,92.1C243.4,334.8,241.5,337.4,238.8,337.8L238.8,337.8z
										"/>
								</g>
								<g>
									<path class="st4" d="M298.9,206.8l-4.5,28.8l-1.6,9.9l-13.9,88.2c-0.4,2.5-2.5,4.2-4.9,4.2c-0.3,0-0.5,0-0.8-0.1
										c-2.7-0.4-4.6-3-4.2-5.7l14.5-92.1l1.7-10.8l3.8-24c0.4-2.7,3-4.6,5.7-4.2S299.4,204.1,298.9,206.8L298.9,206.8z"/>
								</g>
							</g>
							<path class="st2" d="M48.6,333.5v39.9c0,7.1,5.8,12.9,12.9,12.9h388.9c7.1,0,12.9-5.8,12.9-12.9v-39.9H48.6z"/>
							<g>
								<path class="st4" d="M294,237.1c-5.4,0-8.2-3.1-10-5.1c-1.6-1.7-1.8-1.8-2.6-1.8s-1.1,0.1-2.6,1.8c-1.9,2-4.7,5.1-10,5.1
									s-8.2-3.1-10-5.1c-1.6-1.7-1.8-1.8-2.6-1.8c-0.8,0-1.1,0.1-2.6,1.8c-1.9,2-4.7,5.1-10,5.1s-8.2-3.1-10-5.1
									c-1.6-1.7-1.8-1.8-2.6-1.8c-0.8,0-1.1,0.1-2.7,1.8c-1.9,2-4.7,5.1-10,5.1c-2.8,0-5-2.2-5-5s2.2-5,5-5c0.8,0,1.1-0.1,2.7-1.8
									c1.9-2,4.7-5.1,10-5.1s8.2,3.1,10,5.1c1.6,1.7,1.8,1.8,2.6,1.8c0.8,0,1.1-0.1,2.6-1.8c1.9-2,4.7-5.1,10-5.1
									c5.4,0,8.2,3.1,10,5.1c1.6,1.7,1.8,1.8,2.6,1.8c0.8,0,1.1-0.1,2.6-1.8c1.9-2,4.7-5.1,10-5.1c5.4,0,8.2,3.1,10,5.1
									c1.6,1.7,1.8,1.8,2.6,1.8c2.8,0,5,2.2,5,5C299,234.8,296.8,237.1,294,237.1L294,237.1z"/>
							</g>
						</g>
					</g>
				</g>
				<g>
					<path class="st3" d="M289,66c-2.8,0-5-2.2-5-5c0-3.3-2.7-6-6-6c-2.8,0-5-2.2-5-5s2.2-5,5-5c3.3,0,6-2.7,6-6c0-2.8,2.2-5,5-5
						s5,2.2,5,5c0,3.3,2.7,6,6,6c2.8,0,5,2.2,5,5s-2.2,5-5,5c-3.3,0-6,2.7-6,6C294,63.7,291.7,66,289,66z"/>
					<path class="st3" d="M360,429.1c-1.3,0-2.6-0.5-3.5-1.5c-2-2-2-5.1,0-7.1l10-10c2-2,5.1-2,7.1,0c2,2,2,5.1,0,7.1l-10,10
						C362.6,428.6,361.3,429.1,360,429.1z"/>
					<path class="st3" d="M132,70c-1.3,0-2.6-0.5-3.5-1.5c-2-2-2-5.1,0-7.1l10-10c2-2,5.1-2,7.1,0c2,2,2,5.1,0,7.1l-10,10
						C134.6,69.5,133.3,70,132,70z"/>
					<path class="st3" d="M410,460.1c-2.8,0-5-2.2-5-5c0-3.3-2.7-6-6-6c-2.8,0-5-2.2-5-5s2.2-5,5-5c3.3,0,6-2.7,6-6c0-2.8,2.2-5,5-5
						s5,2.2,5,5c0,3.3,2.7,6,6,6c2.8,0,5,2.2,5,5s-2.2,5-5,5c-3.3,0-6,2.7-6,6C415,457.9,412.8,460.1,410,460.1z"/>
					<path class="st3" d="M126,443.3c-2.8,0-5-2.2-5-5c0-3.3-2.7-6-6-6c-2.8,0-5-2.2-5-5s2.2-5,5-5c3.3,0,6-2.7,6-6c0-2.8,2.2-5,5-5
						c2.8,0,5,2.2,5,5c0,3.3,2.7,6,6,6c2.8,0,5,2.2,5,5s-2.2,5-5,5c-3.3,0-6,2.7-6,6C131,441.1,128.8,443.3,126,443.3z"/>
				</g>
			</g>
			<g>
				<path class="st4" d="M252.5,201c-0.6,0-1.3-0.1-1.9-0.4c-1.9-0.8-3.1-2.6-3.1-4.6v-12.7l-2,2c-0.9,0.9-2.2,1.5-3.5,1.5h-29.8
					c-2.8,0-5-2.2-5-5s2.2-5,5-5h27.7l9-9c1.4-1.4,3.6-1.9,5.4-1.1c1.9,0.8,3.1,2.6,3.1,4.6v12.4l5.1-5.4c0.9-1,2.2-1.5,3.6-1.5
					h33.5c2.8,0,5,2.2,5,5s-2.2,5-5,5h-31.4l-12.3,12.8C255.1,200.5,253.8,201,252.5,201L252.5,201z"/>
			</g>
			<g>
				<g>
					<g>
						<path class="st4" d="M411.7,206.8h-26.5c-2.8,0-5-2.2-5-5s2.2-5,5-5h26.5c2.8,0,5,2.2,5,5S414.5,206.8,411.7,206.8z"/>
					</g>
					<g>
						<g>
							<path class="st4" d="M389.3,265.3l-18.8-18.8c-2-2-2-5.1,0-7.1c2-2,5.1-2,7.1,0l18.8,18.8c2,2,2,5.1,0,7.1
								C394.4,267.2,391.3,267.2,389.3,265.3L389.3,265.3z"/>
						</g>
						<g>
							<path class="st4" d="M389.3,138.3l-18.8,18.8c-2,2-2,5.1,0,7.1c2,2,5.1,2,7.1,0l18.8-18.8c2-2,2-5.1,0-7.1
								C394.4,136.4,391.3,136.4,389.3,138.3z"/>
						</g>
					</g>
				</g>
				<g>
					<g>
						<path class="st4" d="M100.3,206.8h26.5c2.8,0,5-2.2,5-5s-2.2-5-5-5h-26.5c-2.8,0-5,2.2-5,5S97.5,206.8,100.3,206.8z"/>
					</g>
					<g>
						<g>
							<path class="st4" d="M122.7,265.3l18.8-18.8c2-2,2-5.1,0-7.1s-5.1-2-7.1,0l-18.8,18.8c-2,2-2,5.1,0,7.1
								C117.6,267.2,120.7,267.2,122.7,265.3L122.7,265.3z"/>
						</g>
						<g>
							<path class="st4" d="M122.7,138.3l18.8,18.8c2,2,2,5.1,0,7.1s-5.1,2-7.1,0l-18.8-18.8c-2-2-2-5.1,0-7.1
								C117.6,136.4,120.7,136.4,122.7,138.3z"/>
						</g>
					</g>
				</g>
			</g>
		</g>
	</g>
	<path class="st4" d="M450.4,85H61.6c-9.9,0-17.9,8-17.9,17.9v195c0,2.8,2.2,5,5,5s5-2.2,5-5V103c0-4.4,3.6-7.9,7.9-7.9h388.9
		c4.4,0,7.9,3.6,7.9,7.9v270.4c0,4.4-3.6,7.9-7.9,7.9H61.6c-4.4,0-7.9-3.6-7.9-7.9v-34.9H426c2.8,0,5-2.2,5-5s-2.2-5-5-5H48.6
		c-2.8,0-5,2.2-5,5v39.9c0,9.9,8,17.9,17.9,17.9h146.1l-3.7,17.9c-1.6,7.8-7,14.3-14.4,17.3c0,0,0,0,0,0c0,0,0,0-0.1,0
		c-6.2,2.6-10.3,8.5-10.3,15.1v0.2c0,8.9,7.3,16.2,16.2,16.2h121c8.9,0,16.2-7.3,16.2-16.2v-0.2c0-6.6-4-12.5-10.3-15.1
		c0,0,0,0-0.1,0c0,0,0,0,0,0c-7.4-3-12.8-9.5-14.4-17.3l-3.7-17.9h146.1c9.9,0,17.9-8,17.9-17.9V103C468.4,93.1,460.3,85,450.4,85
		L450.4,85z M322.7,441.8c0,3.4-2.8,6.2-6.2,6.2h-121c-3.4,0-6.2-2.8-6.2-6.2v-0.2c0-2.3,1.3-4.3,3.4-5.5h126.7
		c2.1,1.1,3.4,3.2,3.4,5.5L322.7,441.8L322.7,441.8z M294.1,391.4l4.1,19.8c1.1,5.6,3.7,10.7,7.2,14.9h-98.8
		c3.5-4.2,6.1-9.3,7.2-14.9l4.1-20h76.2C294.1,391.3,294.1,391.4,294.1,391.4z"/>
</g>
</svg>
