<?xml version="1.0" encoding="utf-8"?>
<!-- Generator: Adobe Illustrator 25.2.0, SVG Export Plug-In . SVG Version: 6.00 Build 0)  -->
<svg version="1.1" id="Capa_1" xmlns="http://www.w3.org/2000/svg" xmlns:xlink="http://www.w3.org/1999/xlink" x="0px" y="0px"
	 viewBox="0 0 512 512" style="enable-background:new 0 0 512 512;" xml:space="preserve">
<style type="text/css">
	.st0{fill:url(#SVGID_1_);}
	.st1{opacity:0.1;fill:#FFD522;enable-background:new    ;}
	.st2{fill:#FFE265;}
	.st3{fill:#FFFFFF;}
	.st4{fill:#FFD522;}
	.st5{opacity:0.15;}
</style>
<g>
	<g>
		<g>
			
				<linearGradient id="SVGID_1_" gradientUnits="userSpaceOnUse" x1="47.7738" y1="257.9998" x2="469.2273" y2="257.9998" gradientTransform="matrix(1 0 0 -1 0 514)">
				<stop  offset="0" style="stop-color:#FFF6D2;stop-opacity:0"/>
				<stop  offset="1" style="stop-color:#FFF1B7"/>
			</linearGradient>
			<path class="st0" d="M99.6,38.2c-135.3,119.5,38.8,235.4,22.2,366c-7.4,58.1,16.1,113.6,92.7,107.2
				c93.4-7.7,59.5-97.2,79.1-156.8c33.7-102.5,240.7-78.6,154.9-236.4C393.8,17.5,192.8-44,99.6,38.2L99.6,38.2z"/>
		</g>
		<g>
			<path class="st1" d="M343.6,138.6c-2.5,0-4.9,0.9-7.3,2.7l-109.9,40.4v-5.9c0-27.4-22.2-49.6-49.6-49.6h-21.3
				c0.6-2.9,0.9-5.9,0.9-8.9c0-23.9-19.4-43.3-43.3-43.3s-43.3,19.4-43.3,43.3c0,7.4,1.9,14.3,5.1,20.4
				c-10.9,9.1-17.8,22.8-17.8,38.1c0,27.4,22.2,49.6,49.6,49.6h1l-55,20.2C40.8,250,33,261.2,33,273.8v46.5
				c0,12.6,7.8,23.8,19.6,28.2l17.2,6.3v51.8c0,13.4,8.1,25.3,20.6,30.2L182,473c3.9,1.5,7.9,2.3,11.9,2.3c6.4,0,12.8-1.9,18.3-5.6
				c8.9-6.1,14.2-16.1,14.2-26.9v-30.4c0,0,114.7,43.1,117.2,43.1c21.9,0,39.7-71,39.7-158.5C383.3,209.5,365.5,138.6,343.6,138.6
				L343.6,138.6z M201.5,442.8c0,3.6-2.3,5.5-3.3,6.2c-1,0.7-3.6,2.1-7,0.8l-91.7-36.2c-2.9-1.1-4.7-3.9-4.7-7V364l106.7,39.2
				L201.5,442.8z"/>
			<g>
				<path class="st2" d="M268.1,90.2c-2.8,0-5-2.2-5-5c0-3.3-2.7-6-6-6c-2.8,0-5-2.2-5-5s2.2-5,5-5c3.3,0,6-2.7,6-6c0-2.8,2.2-5,5-5
					s5,2.2,5,5c0,3.3,2.7,6,6,6c2.8,0,5,2.2,5,5s-2.2,5-5,5c-3.3,0-6,2.7-6,6C273.1,88,270.9,90.2,268.1,90.2z"/>
				<path class="st2" d="M410.3,447.6c-2.8,0-5-2.2-5-5c0-3.3-2.7-6-6-6c-2.8,0-5-2.2-5-5s2.2-5,5-5c3.3,0,6-2.7,6-6
					c0-2.8,2.2-5,5-5s5,2.2,5,5c0,3.3,2.7,6,6,6c2.8,0,5,2.2,5,5s-2.2,5-5,5c-3.3,0-6,2.7-6,6C415.3,445.3,413,447.6,410.3,447.6z"
					/>
				<path class="st2" d="M227.2,63.7c-2.8,0-5-2.2-5-5c0-3.3-2.7-6-6-6c-2.8,0-5-2.2-5-5s2.2-5,5-5c3.3,0,6-2.7,6-6c0-2.8,2.2-5,5-5
					s5,2.2,5,5c0,3.3,2.7,6,6,6c2.8,0,5,2.2,5,5s-2.2,5-5,5c-3.3,0-6,2.7-6,6C232.2,61.4,229.9,63.7,227.2,63.7z"/>
				<path class="st2" d="M388.3,103.5c-1.3,0-2.6-0.5-3.5-1.5l-11-11c-2-2-2-5.1,0-7.1l11-11c2-2,5.1-2,7.1,0l11,11c2,2,2,5.1,0,7.1
					l-11,11C390.8,103,389.5,103.5,388.3,103.5z M384.3,87.5l3.9,3.9l3.9-3.9l-3.9-3.9L384.3,87.5z"/>
				<path class="st2" d="M90.5,473.2c-1.3,0-2.6-0.5-3.5-1.5l-11-11c-2-2-2-5.1,0-7.1l11-11c2-2,5.1-2,7.1,0l11,11c2,2,2,5.1,0,7.1
					l-11,11C93,472.7,91.7,473.2,90.5,473.2z M86.5,457.2l3.9,3.9l3.9-3.9l-3.9-3.9L86.5,457.2z"/>
			</g>
			<g>
				<g>
					<g>
						<path class="st3" d="M94.8,312.2v70.4c0,3.1,1.9,5.8,4.7,7l91.7,36.2c3.3,1.3,6-0.1,7-0.8c1-0.7,3.3-2.6,3.3-6.2v-59.3h25
							v59.3c0,10.8-5.3,20.8-14.2,26.9c-5.5,3.7-11.8,5.6-18.3,5.6c-4,0-8.1-0.8-11.9-2.3l-91.7-36.2c-12.5-4.9-20.6-16.8-20.6-30.2
							v-70.4L94.8,312.2z"/>
					</g>
					<path class="st3" d="M33,249.8v46.5c0,12.6,7.8,23.8,19.6,28.2l291,107.1v-317l-291,107.1C40.8,226,33,237.2,33,249.8z"/>
					<path class="st2" d="M213.4,317l-106-39c-6.5-2.4-13.5,2.4-13.5,9.4v17.8c0,4.2,2.6,7.9,6.5,9.4l106,39
						c6.5,2.4,13.5-2.4,13.5-9.4v-17.8C220,322.2,217.4,318.5,213.4,317z"/>
					<path class="st2" d="M133.3,191.9v162.2l-80.7-29.7C40.8,320.2,33,308.9,33,296.3v-46.6c0-12.6,7.8-23.8,19.6-28.2l26.8-9.9
						L133.3,191.9z"/>
					<g>
						<g>
							<path class="st4" d="M33,252.1h20.8c2.8,0,5,2.2,5,5s-2.2,5-5,5H33V252.1z"/>
						</g>
						<g>
							<path class="st4" d="M33,268.1h20.8c2.8,0,5,2.2,5,5s-2.2,5-5,5H33V268.1z"/>
						</g>
						<g>
							<path class="st4" d="M33,284h20.8c2.8,0,5,2.2,5,5s-2.2,5-5,5H33V284z"/>
						</g>
					</g>
					<ellipse class="st3" cx="343.6" cy="273.1" rx="39.7" ry="158.5"/>
					<path class="st2" d="M343.1,273.1c0,21.2-16.9,38.5-37.9,39.1c-0.8-12.5-1.2-25.6-1.2-39.1s0.4-26.6,1.2-39.1
						C326.2,234.6,343.1,251.8,343.1,273.1z"/>
				</g>
				<path class="st3" d="M221.5,201.4H106.7c-27.4,0-49.6-22.2-49.6-49.6s22.2-49.6,49.6-49.6h70.2c27.4,0,49.6,22.2,49.6,49.6v44.6
					C226.5,199.1,224.2,201.4,221.5,201.4z"/>
				<g>
					<g>
						<path class="st4" d="M191.3,158.8H99.8c-2.8,0-5-2.2-5-5s2.2-5,5-5h91.5c2.8,0,5,2.2,5,5C196.3,156.5,194.1,158.8,191.3,158.8
							z"/>
					</g>
					<g>
						<path class="st4" d="M191.3,177.4H99.8c-2.8,0-5-2.2-5-5s2.2-5,5-5h91.5c2.8,0,5,2.2,5,5S194.1,177.4,191.3,177.4z"/>
					</g>
				</g>
				<g>
					<ellipse class="st3" cx="113.1" cy="93.3" rx="43.3" ry="43.3"/>
					<path class="st4" d="M129.8,87.5c0-9.2-7.5-16.6-16.6-16.6s-16.6,7.5-16.6,16.6c0,4.5,1.8,8.6,4.8,11.6
						c-2.9,3-4.8,7.1-4.8,11.6c0,2.8,2.2,5,5,5s5-2.2,5-5c0-3.6,3-6.6,6.6-6.6s6.6,3,6.6,6.6c0,2.8,2.2,5,5,5s5-2.2,5-5
						c0-4.5-1.8-8.6-4.8-11.6C127.9,96.1,129.8,92,129.8,87.5z M113.1,80.9c3.6,0,6.6,3,6.6,6.6c0,3.6-3,6.6-6.6,6.6s-6.6-3-6.6-6.6
						S109.5,80.9,113.1,80.9z"/>
				</g>
				<path class="st3" d="M133.3,287.5v39.1l-32.8-12.1c-3.9-1.5-6.6-5.2-6.6-9.4v-17.8c0-7,6.9-11.8,13.4-9.4L133.3,287.5z"/>
			</g>
			<g class="st5">
				<g>
					<path class="st4" d="M440,320.6c-0.4,0-0.8,0-1.1-0.1l-29.8-6.9c-2.7-0.6-4.4-3.3-3.7-6c0.6-2.7,3.3-4.4,6-3.7l25.8,6l2.6-5.6
						c1-2.1,3.3-3.3,5.5-2.8l34.7,7.1c2.7,0.6,4.5,3.2,3.9,5.9s-3.2,4.5-5.9,3.9l-30.8-6.3l-2.6,5.7
						C443.7,319.5,441.9,320.6,440,320.6L440,320.6z"/>
				</g>
				<g>
					<g>
						<path class="st4" d="M410.3,279.1c-1.7,0-3.3-0.8-4.2-2.4c-1.5-2.3-0.8-5.4,1.6-6.9l22.4-14l-2.2-5.8c-0.8-2.2,0-4.6,1.9-5.9
							l29.6-19.6c2.3-1.5,5.4-0.9,6.9,1.4c1.5,2.3,0.9,5.4-1.4,6.9l-26.3,17.4l2.2,5.9c0.8,2.2,0,4.7-2,6l-25.9,16.2
							C412.1,278.8,411.2,279.1,410.3,279.1L410.3,279.1z"/>
					</g>
					<g>
						<path class="st4" d="M462.1,398.2c-0.9,0-1.9-0.3-2.8-0.8l-29.6-19.6c-1.9-1.3-2.7-3.7-1.9-5.9l2.2-5.8l-22.4-14
							c-2.3-1.5-3.1-4.5-1.6-6.9s4.5-3.1,6.9-1.6l25.9,16.2c2,1.3,2.9,3.8,2,6l-2.2,5.9l26.3,17.4c2.3,1.5,2.9,4.6,1.4,6.9
							C465.3,397.4,463.7,398.2,462.1,398.2L462.1,398.2z"/>
					</g>
				</g>
			</g>
		</g>
	</g>
	<g>
		<path class="st4" d="M50.9,329.2l13.9,5.1v48.3c0,15.5,9.3,29.2,23.7,34.9l91.7,36.2c4.4,1.7,9,2.6,13.8,2.6
			c7.5,0,14.8-2.2,21.1-6.5c10.3-7,16.4-18.6,16.4-31v-23.2l59.3,21.8c0.6,0.2,1.2,0.3,1.7,0.3c2,0,3.9-1.3,4.7-3.3
			c1-2.6-0.4-5.5-3-6.4L54.3,319.8c-9.8-3.6-16.4-13-16.4-23.5v-46.5c0-10.4,6.6-19.9,16.4-23.5l54.2-19.9c0,0,0,0,0,0h60.1
			c2.8,0,5-2.2,5-5s-2.2-5-5-5h-62c-24.6,0-44.6-20-44.6-44.6c0-11.7,4.5-22.3,11.9-30.2c8.8,12.1,23.1,20.1,39.2,20.1
			c21.8,0,40.3-14.5,46.3-34.4h17.4c24.6,0,44.6,20,44.6,44.6v44.6h-19.1c-2.8,0-5,2.2-5,5s2.2,5,5,5h19.1c5.5,0,10-4.5,10-10v-35.2
			l90.5-33.3c-4.2,8-7.9,18.7-11.2,31.9c-7.6,30.3-11.8,70.6-11.8,113.3s4.2,83,11.8,113.3c8.3,33.3,19.4,50.2,32.9,50.2
			c13.5,0,24.6-16.9,32.9-50.2c7.6-30.3,11.8-70.6,11.8-113.3s-4.2-83-11.8-113.3c-8.3-33.1-19.3-50-32.6-50.2c0,0-0.1,0-0.1,0
			c-0.1,0-0.1,0-0.2,0c-3.4,0-6.7,1.1-9.8,3.3l-102.3,37.7c-0.7-29.5-24.9-53.3-54.6-53.3h-15.6c0.1-1.3,0.2-2.6,0.2-3.9
			c0-26.7-21.7-48.3-48.3-48.3c-26.7,0-48.3,21.7-48.3,48.3c0,6.8,1.4,13.3,4,19.3c-10.3,9.9-16.7,23.9-16.7,39.3
			c0,23.6,15.1,43.8,36.2,51.4l-37.4,13.8C37.2,222,28,235.2,28,249.8v46.5C28,310.9,37.2,324.1,50.9,329.2L50.9,329.2z
			 M221.5,418.8c0,9.1-4.5,17.6-12,22.7c-4.6,3.1-9.9,4.8-15.5,4.8c-3.5,0-6.9-0.6-10.1-1.9l-91.7-36.2
			C81.6,404,74.8,394,74.8,382.6V338l15,5.5v39.1c0,5.2,3.1,9.7,7.9,11.6l91.7,36.2c1.5,0.6,3.1,0.9,4.6,0.9c2.5,0,4.9-0.7,7-2.2
			c3.4-2.3,5.5-6.2,5.5-10.3v-32.4l15,5.5L221.5,418.8z M99.8,347.2l96.7,35.6v36.1c0,1.1-0.6,1.7-1.1,2.1c-0.5,0.3-1.3,0.7-2.3,0.2
			L101.4,385c-1-0.4-1.6-1.3-1.6-2.3V347.2z M378.3,273.1c0,95.1-20.2,153.5-34.7,153.5c-14.5,0-34.7-58.4-34.7-153.5
			c0-84.4,15.9-139.9,29.6-151.3l5.8-2.1C358.8,121.6,378.3,179.6,378.3,273.1L378.3,273.1z M113.1,54.9c21.1,0,38.3,17.2,38.3,38.3
			s-17.2,38.3-38.3,38.3c-21.1,0-38.3-17.2-38.3-38.3C74.8,72.1,92,54.9,113.1,54.9z"/>
		<path class="st4" d="M409.1,289.6l29.8,6.9c0.4,0.1,0.8,0.1,1.1,0.1c1.9,0,3.7-1.1,4.6-2.9l2.6-5.7l30.8,6.3
			c2.7,0.6,5.3-1.2,5.9-3.9c0.6-2.7-1.2-5.3-3.9-5.9l-34.8-7.1c-2.3-0.5-4.6,0.7-5.5,2.8l-2.6,5.6l-25.8-6c-2.7-0.6-5.4,1.1-6,3.7
			C404.8,286.3,406.4,289,409.1,289.6L409.1,289.6z"/>
		<path class="st4" d="M410.3,255.1c0.9,0,1.8-0.2,2.6-0.8l25.9-16.2c2-1.3,2.9-3.8,2-6l-2.2-5.9l26.3-17.4c2.3-1.5,2.9-4.6,1.4-6.9
			c-1.5-2.3-4.6-2.9-6.9-1.4l-29.6,19.6c-1.9,1.3-2.7,3.7-1.9,5.9l2.2,5.8l-22.4,14c-2.3,1.5-3.1,4.5-1.6,6.9
			C407,254.2,408.6,255.1,410.3,255.1L410.3,255.1z"/>
		<path class="st4" d="M429.8,353.8l29.6,19.6c0.8,0.6,1.8,0.8,2.8,0.8c1.6,0,3.2-0.8,4.2-2.2c1.5-2.3,0.9-5.4-1.4-6.9l-26.3-17.4
			l2.2-5.9c0.8-2.2,0-4.7-2-6l-25.9-16.2c-2.3-1.5-5.4-0.8-6.9,1.6c-1.5,2.3-0.8,5.4,1.6,6.9l22.4,14l-2.2,5.8
			C427,350.1,427.8,352.5,429.8,353.8L429.8,353.8z"/>
	</g>
</g>
</svg>
