<?xml version="1.0" encoding="utf-8"?>
<!-- Generator: Adobe Illustrator 25.2.0, SVG Export Plug-In . SVG Version: 6.00 Build 0)  -->
<svg version="1.1" id="Capa_1" xmlns="http://www.w3.org/2000/svg" xmlns:xlink="http://www.w3.org/1999/xlink" x="0px" y="0px"
	 viewBox="0 0 512 512" style="enable-background:new 0 0 512 512;" xml:space="preserve">
<style type="text/css">
	.st0{fill:url(#SVGID_1_);}
	.st1{opacity:0.1;fill:#FFD522;enable-background:new    ;}
	.st2{fill:#FFE265;}
	.st3{fill:#FFFFFF;}
	.st4{fill:#FFD522;}
</style>
<g>
	<g>
		
			<linearGradient id="SVGID_1_" gradientUnits="userSpaceOnUse" x1="1068.0889" y1="11090.2627" x2="528.0349" y2="11402.2949" gradientTransform="matrix(1 0 0 1 -561.6 -10978.9902)">
			<stop  offset="0" style="stop-color:#FFF6D2;stop-opacity:0"/>
			<stop  offset="1" style="stop-color:#FFF1B7"/>
		</linearGradient>
		<path class="st0" d="M361.2,275.7c-56.8,0-102.8-46-102.8-102.8v-65.2C258.5,48.2,210.2,0,150.8,0S43.1,48.2,43.1,107.7v86.2
			C43.1,369.6,185.5,512,361.2,512c59.5,0,107.7-48.2,107.7-107.7v-20.9C468.9,323.9,420.7,275.7,361.2,275.7L361.2,275.7z"/>
		<g>
			<path class="st1" d="M452,358.3v-176c0-8.3-6.7-15-15-15h-18.5C386,116.6,330.4,82,266.7,78.5l-15.3-15.3c-2-2-5.1-2-7.1,0
				c-2,2-2,5.1,0,7.1l8,8c-44.1,0.8-84.6,16.5-116.8,42.3c-8.7-15.3-25.1-25.6-44-25.6C63.6,95,41,117.6,41,145.6
				c0,16,7.4,30.2,19,39.5v201.3c0,8.3,6.7,15,15,15h39c33,36,79.5,59.4,131.3,62.3l15.3,15.3c1,1,2.3,1.5,3.5,1.5s2.6-0.5,3.5-1.5
				c2-2,2-5.1,0-7.1l-8-8c43.9-0.8,84.2-16.4,116.3-41.9c8.6,15.8,25.3,26.5,44.5,26.5c27.9,0,50.6-22.6,50.6-50.6
				C471,381.8,463.6,367.6,452,358.3L452,358.3z M251.9,88.2l-7.6,7.6c-2,2-2,5.1,0,7.1c1,1,2.3,1.5,3.5,1.5s2.6-0.5,3.5-1.5
				l14.4-14.4c58.3,3.1,109.4,33.6,140.7,78.9H137.2c3.2-6.6,4.9-14,4.9-21.8c0-5.4-0.9-10.6-2.4-15.5
				C170.4,104.7,209.3,89.2,251.9,88.2L251.9,88.2z M260.1,453.8l7.6-7.6c2-2,2-5.1,0-7.1c-2-2-5.1-2-7.1,0l-14.4,14.4
				c-46-2.4-87.5-22-118.3-52.3h73.3v23.5c0,4,4.5,6.4,7.8,4.1l13.3-9.1l13.3,9.1c3.3,2.3,7.8-0.1,7.8-4.1v-23.5H370
				c0.3,3.8,0.9,7.5,2,11C341.4,437.4,302.5,452.8,260.1,453.8L260.1,453.8z"/>
			<g>
				<g>
					<path class="st2" d="M435,94.8c-2.8,0-5-2.2-5-5v-16c0-2.8,2.2-5,5-5s5,2.2,5,5v16C440,92.5,437.8,94.8,435,94.8z"/>
					<path class="st2" d="M443,86.8h-16c-2.8,0-5-2.2-5-5s2.2-5,5-5h16c2.8,0,5,2.2,5,5S445.8,86.8,443,86.8z"/>
				</g>
				<g>
					<path class="st2" d="M124,442.2c-2.8,0-5-2.2-5-5v-16c0-2.8,2.2-5,5-5s5,2.2,5,5v16C129,439.9,126.7,442.2,124,442.2z"/>
					<path class="st2" d="M131.5,434.2h-15.1c-2.8,0-5-2.2-5-5s2.2-5,5-5h15.1c2.8,0,5,2.2,5,5S134.3,434.2,131.5,434.2z"/>
				</g>
				<path class="st2" d="M369.8,48.8c-1.3,0-2.6-0.5-3.5-1.5l-4.5-4.5l-4.5,4.5c-2,2-5.1,2-7.1,0c-2-2-2-5.1,0-7.1l8-8
					c2-2,5.1-2,7.1,0l8,8c2,2,2,5.1,0,7.1C372.4,48.3,371.1,48.8,369.8,48.8z"/>
				<path class="st2" d="M348.4,454.2c-1.3,0-2.6-0.5-3.5-1.5l-4.5-4.5l-4.5,4.5c-2,2-5.1,2-7.1,0c-2-2-2-5.1,0-7.1l8-8
					c2-2,5.1-2,7.1,0l8,8c2,2,2,5.1,0,7.1C350.9,453.7,349.7,454.2,348.4,454.2z"/>
				<path class="st2" d="M296.2,473.2c-1.3,0-2.6-0.5-3.5-1.5l-4.5-4.5l-4.5,4.5c-2,2-5.1,2-7.1,0c-2-2-2-5.1,0-7.1l8-8
					c2-2,5.1-2,7.1,0l8,8c2,2,2,5.1,0,7.1C298.7,472.7,297.5,473.2,296.2,473.2z"/>
			</g>
			<g>
				<g>
					<g>
						<g>
							<path class="st3" d="M452,155.3v203.9c0,8.3-6.7,15-15,15H75c-8.3,0-15-6.7-15-15V155.3c0-8.3,6.7-15,15-15H437
								C445.3,140.3,452,147.1,452,155.3z"/>
							<g>
								<path class="st3" d="M243.4,336.2v61.6c0,4-4.5,6.4-7.8,4.1l-13.3-9.1l-13.3,9.1c-3.3,2.3-7.8-0.1-7.8-4.1v-61.6H243.4z"/>
							</g>
						</g>
						<g>
							<path class="st3" d="M256,143.6V333c0,5.5-4.5,10-10,10H103c-5.5,0-10-4.5-10-10V128.6c0-5.5,4.5-10,10-10h128
								C244.8,118.6,256,129.7,256,143.6z"/>
							<path class="st3" d="M266,343h143c5.5,0,10-4.5,10-10V128.5c0-5.5-4.5-10-10-10H281c-13.8,0-25,11.2-25,25V333
								C256,338.5,260.5,343,266,343z"/>
						</g>
						<g>
							<g>
								<g>
									<g>
										<g>
											<path class="st4" d="M325.9,196.9h-43.5c-2.8,0-5-2.2-5-5s2.2-5,5-5h43.5c2.8,0,5,2.2,5,5S328.7,196.9,325.9,196.9z"/>
										</g>
										<g>
											<path class="st4" d="M325.9,216.4h-43.5c-2.8,0-5-2.2-5-5s2.2-5,5-5h43.5c2.8,0,5,2.2,5,5S328.7,216.4,325.9,216.4z"/>
										</g>
										<g>
											<path class="st4" d="M325.9,235.9h-43.5c-2.8,0-5-2.2-5-5s2.2-5,5-5h43.5c2.8,0,5,2.2,5,5S328.7,235.9,325.9,235.9z"/>
										</g>
									</g>
									<g>
										<g>
											<path class="st4" d="M388.9,196.9h-43.5c-2.8,0-5-2.2-5-5s2.2-5,5-5h43.5c2.8,0,5,2.2,5,5S391.7,196.9,388.9,196.9z"/>
										</g>
										<g>
											<path class="st4" d="M388.9,216.4h-43.5c-2.8,0-5-2.2-5-5s2.2-5,5-5h43.5c2.8,0,5,2.2,5,5S391.7,216.4,388.9,216.4z"/>
										</g>
										<g>
											<path class="st4" d="M388.9,235.9h-43.5c-2.8,0-5-2.2-5-5s2.2-5,5-5h43.5c2.8,0,5,2.2,5,5S391.7,235.9,388.9,235.9z"/>
										</g>
									</g>
								</g>
								<g>
									<g>
										<g>
											<path class="st4" d="M325.9,255.4h-43.5c-2.8,0-5-2.2-5-5s2.2-5,5-5h43.5c2.8,0,5,2.2,5,5S328.7,255.4,325.9,255.4z"/>
										</g>
										<g>
											<path class="st4" d="M325.9,274.9h-43.5c-2.8,0-5-2.2-5-5s2.2-5,5-5h43.5c2.8,0,5,2.2,5,5S328.7,274.9,325.9,274.9z"/>
										</g>
										<g>
											<path class="st4" d="M325.9,294.4h-43.5c-2.8,0-5-2.2-5-5s2.2-5,5-5h43.5c2.8,0,5,2.2,5,5S328.7,294.4,325.9,294.4z"/>
										</g>
										<g>
											<path class="st4" d="M325.9,313.9h-43.5c-2.8,0-5-2.2-5-5s2.2-5,5-5h43.5c2.8,0,5,2.2,5,5S328.7,313.9,325.9,313.9z"/>
										</g>
									</g>
									<g>
										<g>
											<path class="st4" d="M388.9,255.4h-43.5c-2.8,0-5-2.2-5-5s2.2-5,5-5h43.5c2.8,0,5,2.2,5,5S391.7,255.4,388.9,255.4z"/>
										</g>
										<g>
											<path class="st4" d="M388.9,274.9h-43.5c-2.8,0-5-2.2-5-5s2.2-5,5-5h43.5c2.8,0,5,2.2,5,5S391.7,274.9,388.9,274.9z"/>
										</g>
										<g>
											<path class="st4" d="M388.9,294.4h-43.5c-2.8,0-5-2.2-5-5s2.2-5,5-5h43.5c2.8,0,5,2.2,5,5S391.7,294.4,388.9,294.4z"/>
										</g>
										<g>
											<path class="st4" d="M388.9,313.9h-43.5c-2.8,0-5-2.2-5-5s2.2-5,5-5h43.5c2.8,0,5,2.2,5,5S391.7,313.9,388.9,313.9z"/>
										</g>
									</g>
								</g>
							</g>
							<g>
								<g>
									<g>
										<g>
											<path class="st4" d="M171.6,152.9c0,2.8-2.2,5-5,5h-43.5c-2.8,0-5-2.2-5-5c0-2.8,2.2-5,5-5h43.5
												C169.4,147.9,171.6,150.1,171.6,152.9z"/>
										</g>
										<g>
											<path class="st4" d="M171.6,172.4c0,2.8-2.2,5-5,5h-43.5c-1.2,0-2.3-0.4-3.2-1.2c-1.1-0.9-1.8-2.3-1.8-3.8
												c0-2.8,2.2-5,5-5h43.5C169.4,167.4,171.6,169.6,171.6,172.4z"/>
										</g>
										<g>
											<path class="st4" d="M166.6,196.9h-43.5c-2.8,0-5-2.2-5-5s2.2-5,5-5h43.5c2.8,0,5,2.2,5,5S169.4,196.9,166.6,196.9z"/>
										</g>
										<g>
											<path class="st4" d="M166.6,216.4h-43.5c-2.8,0-5-2.2-5-5s2.2-5,5-5h43.5c2.8,0,5,2.2,5,5S169.4,216.4,166.6,216.4z"/>
										</g>
										<g>
											<path class="st4" d="M166.6,235.9h-43.5c-2.8,0-5-2.2-5-5s2.2-5,5-5h43.5c2.8,0,5,2.2,5,5S169.4,235.9,166.6,235.9z"/>
										</g>
									</g>
									<g>
										<g>
											<path class="st4" d="M229.6,157.9h-43.5c-2.8,0-5-2.2-5-5s2.2-5,5-5h43.5c2.8,0,5,2.2,5,5S232.3,157.9,229.6,157.9z"/>
										</g>
										<g>
											<path class="st4" d="M229.6,177.4h-43.5c-2.8,0-5-2.2-5-5s2.2-5,5-5h43.5c2.8,0,5,2.2,5,5S232.3,177.4,229.6,177.4z"/>
										</g>
										<g>
											<path class="st4" d="M229.6,196.9h-43.5c-2.8,0-5-2.2-5-5s2.2-5,5-5h43.5c2.8,0,5,2.2,5,5S232.3,196.9,229.6,196.9z"/>
										</g>
										<g>
											<path class="st4" d="M229.6,216.4h-43.5c-2.8,0-5-2.2-5-5s2.2-5,5-5h43.5c2.8,0,5,2.2,5,5S232.3,216.4,229.6,216.4z"/>
										</g>
										<g>
											<path class="st4" d="M229.6,235.9h-43.5c-2.8,0-5-2.2-5-5s2.2-5,5-5h43.5c2.8,0,5,2.2,5,5S232.3,235.9,229.6,235.9z"/>
										</g>
									</g>
								</g>
								<g>
									<g>
										<g>
											<path class="st4" d="M166.6,294.4h-43.5c-2.8,0-5-2.2-5-5s2.2-5,5-5h43.5c2.8,0,5,2.2,5,5S169.4,294.4,166.6,294.4z"/>
										</g>
										<g>
											<path class="st4" d="M166.6,313.9h-43.5c-2.8,0-5-2.2-5-5s2.2-5,5-5h43.5c2.8,0,5,2.2,5,5S169.4,313.9,166.6,313.9z"/>
										</g>
									</g>
									<g>
										<g>
											<path class="st4" d="M229.6,294.4h-43.5c-2.8,0-5-2.2-5-5s2.2-5,5-5h43.5c2.8,0,5,2.2,5,5S232.3,294.4,229.6,294.4z"/>
										</g>
										<g>
											<path class="st4" d="M229.6,313.9h-43.5c-2.8,0-5-2.2-5-5s2.2-5,5-5h43.5c2.8,0,5,2.2,5,5S232.3,313.9,229.6,313.9z"/>
										</g>
									</g>
								</g>
							</g>
						</g>
					</g>
				</g>
			</g>
			<g>
				<g>
					<circle class="st2" cx="91.6" cy="118.6" r="50.6"/>
					<path class="st4" d="M108.2,112.7c0-9.2-7.5-16.6-16.6-16.6S75,103.6,75,112.7c0,4.5,1.8,8.6,4.8,11.6c-2.9,3-4.8,7.1-4.8,11.6
						c0,2.8,2.2,5,5,5s5-2.2,5-5c0-3.6,3-6.6,6.6-6.6s6.6,3,6.6,6.6c0,2.8,2.2,5,5,5s5-2.2,5-5c0-4.5-1.8-8.6-4.8-11.6
						C106.4,121.4,108.2,117.3,108.2,112.7z M91.6,106.1c3.6,0,6.6,3,6.6,6.6s-3,6.6-6.6,6.6s-6.6-3-6.6-6.6S87.9,106.1,91.6,106.1z
						"/>
				</g>
				<g>
					<circle class="st2" cx="420.4" cy="370.8" r="50.6"/>
					<path class="st4" d="M437,365c0-9.2-7.5-16.6-16.6-16.6s-16.6,7.5-16.6,16.6c0,4.5,1.8,8.6,4.8,11.6c-2.9,3-4.8,7.1-4.8,11.6
						c0,2.8,2.2,5,5,5s5-2.2,5-5c0-3.6,3-6.6,6.6-6.6s6.6,3,6.6,6.6c0,2.8,2.2,5,5,5s5-2.2,5-5c0-4.5-1.8-8.6-4.8-11.6
						C435.2,373.6,437,369.5,437,365z M420.4,358.3c3.6,0,6.6,3,6.6,6.6s-3,6.6-6.6,6.6s-6.6-3-6.6-6.6S416.8,358.3,420.4,358.3z"/>
				</g>
			</g>
			<path class="st2" d="M230.1,273.5H123.6c-2.8,0-5-2.2-5-5v-17.4c0-2.8,2.2-5,5-5h106.5c2.8,0,5,2.2,5,5v17.4
				C235.1,271.3,232.8,273.5,230.1,273.5z"/>
			<path class="st2" d="M388.9,175.2H282.4c-2.8,0-5-2.2-5-5v-17.4c0-2.8,2.2-5,5-5h106.5c2.8,0,5,2.2,5,5v17.4
				C393.9,173,391.7,175.2,388.9,175.2z"/>
			<path class="st4" d="M457,329V155.3c0-11-9-20-20-20h-13v-6.8c0-8.3-6.7-15-15-15h-11.1c-33-35.9-79.4-59.2-131.2-62.1
				l-15.3-15.3c-2-2-5.1-2-7.1,0c-2,2-2,5.1,0,7.1l8,8C210,52,171,66.5,139.5,90.4C129.8,74,112,63,91.6,63
				C60.9,63,36,87.9,36,118.5c0,16.6,7.3,31.6,19,41.8V239c0,2.8,2.2,5,5,5s5-2.2,5-5v-71.7c6.9,3.8,14.7,6.1,23,6.7v159
				c0,8.3,6.7,15,15,15h93.1v21.3H75c-5.5,0-10-4.5-10-10v-89.6c0-2.8-2.2-5-5-5s-5,2.2-5,5v89.6c0,11,9,20,20,20h43.8
				c32.7,33.1,77.2,54.5,126.6,57.3l15.3,15.3c1,1,2.3,1.5,3.5,1.5s2.6-0.5,3.5-1.5c2-2,2-5.1,0-7.1l-8-8
				c42.1-0.8,80.9-15.1,112.3-38.8c9.5,16.9,27.7,28.4,48.4,28.4c30.6,0,55.6-24.9,55.6-55.6C476,354.1,468.7,339.2,457,329L457,329
				z M437,145.3c5.5,0,10,4.5,10,10V322c-6.9-3.8-14.7-6.1-23-6.7v-170L437,145.3z M414,128.6v187c-15.7,1.8-29.5,10.2-38.4,22.4
				h-33.9c-2.8,0-5,2.2-5,5s2.2,5,5,5h28.1c-3,6.5-4.7,13.7-4.9,21.3H248.4v-21.5c2.9-0.5,5.5-1.8,7.6-3.6c2.7,2.4,6.2,3.9,10,3.9
				h45c2.8,0,5-2.2,5-5s-2.2-5-5-5h-45c-2.8,0-5-2.2-5-5V143.5c0-11,9-20,20-20h128C411.8,123.5,414,125.8,414,128.6L414,128.6z
				 M251.9,61.2l-7.6,7.6c-2,2-2,5.1,0,7.1c1,1,2.3,1.5,3.5,1.5s2.6-0.5,3.5-1.5l14.4-14.4c45.9,2.4,87.3,21.9,118.2,52.1H281
				c-10.4,0-19.6,5.3-25,13.4c-5.4-8.1-14.6-13.4-25-13.4h-84.1c-0.4-4.8-1.5-9.5-3.1-13.9C173.8,76.4,211.2,62.1,251.9,61.2
				L251.9,61.2z M46,118.6C46,93.4,66.4,73,91.6,73s45.6,20.4,45.6,45.6c0,25.1-20.4,45.6-45.6,45.6S46,143.7,46,118.6z M98,333
				V173.8c26-3,46.6-24,48.9-50.2H231c11,0,20,9,20,20V333c0,2.8-2.2,5-5,5H103C100.2,338,98,335.7,98,333z M238.4,348l0,49.8
				c0,0,0,0,0,0l-13.3-9.1c-0.8-0.6-1.8-0.9-2.8-0.9s-2,0.3-2.8,0.9l-13.3,9.1V348L238.4,348z M260.1,426.8l7.6-7.6c2-2,2-5.1,0-7.1
				c-2-2-5.1-2-7.1,0l-14.4,14.4c-43.4-2.3-82.8-19.8-113-47.3h63v18.5c0,3.7,2,7.1,5.3,8.8c1.5,0.8,3.1,1.2,4.7,1.2
				c2,0,3.9-0.6,5.6-1.7l10.5-7.2l10.5,7.2c3.1,2.1,7,2.3,10.3,0.6c3.3-1.7,5.3-5.1,5.3-8.8v-18.5h117.1c0.5,3.2,1.3,6.3,2.3,9.3
				C337.9,411.8,300.6,425.9,260.1,426.8L260.1,426.8z M420.4,416.3c-25.1,0-45.6-20.4-45.6-45.6c0-25.1,20.4-45.6,45.6-45.6
				c25.1,0,45.6,20.4,45.6,45.6C466,395.9,445.6,416.3,420.4,416.3z"/>
		</g>
	</g>
</g>
</svg>
