<?xml version="1.0" encoding="utf-8"?>
<!-- Generator: Adobe Illustrator 25.2.0, SVG Export Plug-In . SVG Version: 6.00 Build 0)  -->
<svg version="1.1" id="Capa_1" xmlns="http://www.w3.org/2000/svg" xmlns:xlink="http://www.w3.org/1999/xlink" x="0px" y="0px"
	 viewBox="0 0 512 512" style="enable-background:new 0 0 512 512;" xml:space="preserve">
<style type="text/css">
	.st0{fill:url(#SVGID_1_);}
	.st1{opacity:0.1;fill:#FFD522;enable-background:new    ;}
	.st2{fill:#FFE265;}
	.st3{fill:#FFFFFF;}
	.st4{fill:#FFD522;}
</style>
<g>
	<g>
		<g>
			
				<linearGradient id="SVGID_1_" gradientUnits="userSpaceOnUse" x1="-3877.373" y1="2681.8611" x2="-4361.8291" y2="1327.465" gradientTransform="matrix(0 -1 1 0 -1769.6 -3880.99)">
				<stop  offset="0" style="stop-color:#FFF6D2;stop-opacity:0"/>
				<stop  offset="1" style="stop-color:#FFF2BA"/>
			</linearGradient>
			<path class="st0" d="M180.3,0C79.6,0.5,29.1,173.6,10.2,262.6c-18.9,89,0.8,271.5,147.1,247.2c23.6-3.9,29.2-4.7,48.6-14.5
				c34.7-17.4,75.7-29.7,112.8-33.4c15.2-1.5,34.4-6.5,44.6-8.4c81.6-14.7,164.9-93.8,139.7-176.6c-18.9-62.2-74.4-87.3-130-83.8
				c-30.5,1.9-63-16-69.5-35.8C282.4,92.9,258-0.4,180.3,0L180.3,0z"/>
		</g>
		<g>
			<path class="st1" d="M433.2,181.7H71.1c-8.3,0-15,6.7-15,15v203.9c0,8.3,6.7,15,15,15h126.2v23.5c0,4,4.5,6.4,7.8,4.1l13.3-9.1
				l13.3,9.1c3.3,2.3,7.8-0.1,7.8-4.1v-23.5h36.5v15.6c0,2.8,2.2,5,5,5h105.1c2.8,0,5-2.2,5-5v-15.6h42c8.3,0,15-6.7,15-15V196.7
				C448.2,188.4,441.5,181.7,433.2,181.7L433.2,181.7z"/>
			<g>
				<g>
					<path class="st2" d="M448.2,169.7v203.9c0,8.3-6.7,15-15,15H71.1c-8.3,0-15-6.7-15-15V169.7c0-8.3,6.7-15,15-15h362.1
						C441.5,154.7,448.2,161.4,448.2,169.7L448.2,169.7z"/>
					<g>
						<path class="st3" d="M448.2,342.2H56.1V169.7c0-8.3,6.7-15,15-15h362.1c8.3,0,15,6.7,15,15V342.2z"/>
					</g>
					<g>
						<path class="st3" d="M239.5,350.5v61.6c0,4-4.5,6.4-7.8,4.1l-13.3-9.1l-13.3,9.1c-3.3,2.3-7.8-0.1-7.8-4.1v-61.6H239.5z"/>
					</g>
				</g>
				<g>
					<path class="st3" d="M252.1,157.9v189.4c0,5.5-4.5,10-10,10h-143c-5.5,0-10-4.5-10-10V142.9c0-5.5,4.5-10,10-10h128
						C241,132.9,252.1,144.1,252.1,157.9z"/>
					<g>
						<g>
							<path class="st4" d="M227.6,290.7H114.3c-2.8,0-5-2.2-5-5s2.2-5,5-5h113.3c2.8,0,5,2.2,5,5S230.3,290.7,227.6,290.7z"/>
							<g>
								<path class="st4" d="M227.6,310.2H114.3c-2.8,0-5-2.2-5-5s2.2-5,5-5h113.3c2.8,0,5,2.2,5,5S230.3,310.2,227.6,310.2z"/>
							</g>
							<g>
								<path class="st4" d="M232.6,324.7c0,2.8-2.2,5-5,5H114.3c-2.8,0-5-2.2-5-5s2.2-5,5-5h113.3
									C230.3,319.7,232.6,322,232.6,324.7z"/>
							</g>
						</g>
					</g>
					<path class="st2" d="M227,265.8H114.3c-2.8,0-5-2.2-5-5V159.1c0-2.8,2.2-5,5-5H227c2.8,0,5,2.2,5,5v101.7
						C232,263.5,229.8,265.8,227,265.8z"/>
					<path class="st3" d="M262.1,357.3h143c5.5,0,10-4.5,10-10V142.9c0-5.5-4.5-10-10-10h-128c-13.8,0-25,11.2-25,25v189.4
						C252.1,352.8,256.6,357.3,262.1,357.3z"/>
					<g>
						<path class="st2" d="M252.1,281v66.3c0,5.5,4.5,10,10,10h143c5.5,0,10-4.5,10-10V281H252.1z"/>
						<path class="st2" d="M395,204v-44.9c0-2.8-2.2-5-5-5H277.3c-2.8,0-5,2.2-5,5V204c0,2.8,2.2,5,5,5H390
							C392.8,209,395,206.8,395,204z"/>
					</g>
				</g>
			</g>
			<g>
				<path class="st2" d="M431.1,450.8c-1.3,0-2.6-0.5-3.5-1.5l-4.5-4.5l-4.5,4.5c-2,2-5.1,2-7.1,0c-2-2-2-5.1,0-7.1l8-8
					c2-2,5.1-2,7.1,0l8,8c2,2,2,5.1,0,7.1C433.7,450.3,432.4,450.8,431.1,450.8z"/>
				<path class="st2" d="M97.1,110.5c-1.3,0-2.6-0.5-3.5-1.5l-4.5-4.5l-4.5,4.5c-2,2-5.1,2-7.1,0c-2-2-2-5.1,0-7.1l8-8
					c2-2,5.1-2,7.1,0l8,8c2,2,2,5.1,0,7.1C99.7,110,98.4,110.5,97.1,110.5z"/>
				<path class="st2" d="M117.3,55.7h-3v-3c0-2.8-2.2-5-5-5s-5,2.2-5,5v3h-3c-2.8,0-5,2.2-5,5s2.2,5,5,5h3v3c0,2.8,2.2,5,5,5
					s5-2.2,5-5v-3h3c2.8,0,5-2.2,5-5S120.1,55.7,117.3,55.7z"/>
				<path class="st2" d="M341.6,85.1h-3v-3c0-2.8-2.2-5-5-5s-5,2.2-5,5v3h-3c-2.8,0-5,2.2-5,5s2.2,5,5,5h3v3c0,2.8,2.2,5,5,5
					s5-2.2,5-5v-3h3c2.8,0,5-2.2,5-5S344.4,85.1,341.6,85.1z"/>
				<path class="st2" d="M382,461.2h-3v-3c0-2.8-2.2-5-5-5s-5,2.2-5,5v3h-3c-2.8,0-5,2.2-5,5s2.2,5,5,5h3v3c0,2.8,2.2,5,5,5
					s5-2.2,5-5v-3h3c2.8,0,5-2.2,5-5S384.8,461.2,382,461.2z"/>
			</g>
			<g>
				<g>
					<path class="st3" d="M386.2,409.2H281.1c-2.8,0-5-2.2-5-5v-93.8c0-2.8,115.1-2.8,115.1,0v93.8
						C391.2,407,388.9,409.2,386.2,409.2z"/>
					<path class="st2" d="M391.2,334.1v-23.7c0-2.8-2.2-5-5-5H281.1c-2.8,0-5,2.2-5,5v23.7H391.2z"/>
				</g>
				<path class="st2" d="M320.2,355.6V380c0,2.3,2.5,3.8,4.5,2.6l20.8-12.2c2-1.2,2-4,0-5.2l-20.8-12.2
					C322.7,351.9,320.2,353.3,320.2,355.6z"/>
				<g>
					<circle class="st4" cx="295.5" cy="322.8" r="3.5"/>
					<circle class="st4" cx="306.6" cy="322.8" r="3.5"/>
					<circle class="st4" cx="317.8" cy="322.8" r="3.5"/>
				</g>
			</g>
			<g>
				<g>
					<path class="st3" d="M185.3,308.8H156c-5.5,0-10-4.5-10-10V102.9c0-4.7,1.7-9.3,4.7-12.9l16.1-19.2c2-2.4,5.7-2.4,7.7,0
						l16.1,19.2c3,3.6,4.7,8.2,4.7,12.9v195.8C195.3,304.3,190.8,308.8,185.3,308.8L185.3,308.8z"/>
					<path class="st2" d="M161.9,101.5h17.5v207.2h-17.5V101.5z"/>
					<path class="st3" d="M195.3,102.9c0-4.7-1.7-9.3-4.7-12.9l-16.1-19.2c-2-2.4-5.7-2.4-7.7,0l-16.1,19.2c-3,3.6-4.7,8.2-4.7,12.9
						L195.3,102.9z"/>
					<path class="st2" d="M188.6,87.7l-14.1-16.8c-2-2.4-5.7-2.4-7.7,0l-14.1,16.8L188.6,87.7z"/>
					<path class="st4" d="M433.2,149.7h-13v-6.8c0-8.3-6.7-15-15-15h-128c-10.4,0-19.6,5.3-25,13.4c-5.4-8.1-14.6-13.4-25-13.4
						h-26.8v-24.9c0-5.9-2.1-11.6-5.9-16.1l-16.1-19.2c-1.9-2.3-4.7-3.6-7.7-3.6c0,0,0,0,0,0c-3,0-5.7,1.3-7.7,3.6l-16.1,19.2
						c-3.8,4.5-5.9,10.2-5.9,16.1v24.9H99.1c-8.3,0-15,6.7-15,15v6.8h-13c-11,0-20,9-20,20v203.9c0,11,9,20,20,20h121.2v18.5
						c0,3.7,2,7.1,5.3,8.8c1.5,0.8,3.1,1.2,4.7,1.2c2,0,3.9-0.6,5.6-1.7l10.5-7.2l10.5,7.2c3.1,2.1,7,2.3,10.3,0.6
						c3.3-1.7,5.3-5.1,5.3-8.8v-18.5h26.5v10.6c0,5.5,4.5,10,10,10h105.1c5.5,0,10-4.5,10-10v-10.6h37c11,0,20-9,20-20V169.7
						C453.2,158.6,444.2,149.7,433.2,149.7L433.2,149.7z M94.1,142.9c0-2.8,2.2-5,5-5H141v26.8c0,2.8,2.2,5,5,5s5-2.2,5-5v-61.8
						c0-3.5,1.3-7,3.5-9.7l16.1-19.2l16.1,19.2c2.3,2.7,3.5,6.1,3.5,9.7v195.8c0,2.8-2.2,5-5,5H156c-2.8,0-5-2.2-5-5V195.3
						c0-2.8-2.2-5-5-5s-5,2.2-5,5v103.5c0,8.3,6.7,15,15,15h29.3c8.3,0,15-6.7,15-15V137.9h26.8c11,0,20,9,20,20v189.4
						c0,2.8-2.2,5-5,5h-143c-2.8,0-5-2.2-5-5L94.1,142.9z M71.1,383.6c-5.5,0-10-4.5-10-10V169.7c0-5.5,4.5-10,10-10h13v187.6
						c0,8.3,6.7,15,15,15h93.1v21.3L71.1,383.6z M234.5,412.1l-13.3-9.1c-1.7-1.2-3.9-1.2-5.6,0l-13.3,9.1v-49.8h32.3L234.5,412.1
						C234.6,412.1,234.6,412.1,234.5,412.1L234.5,412.1z M244.5,383.6v-21.5c2.9-0.5,5.5-1.8,7.6-3.6c2.7,2.4,6.2,3.9,10,3.9h8.9
						v21.3L244.5,383.6z M360.3,310.4h25.9v93.8H281.1v-93.8h48.6c2.8,0,5-2.2,5-5s-2.2-5-5-5h-48.6c-5.5,0-10,4.5-10,10v41.9h-8.9
						c-2.8,0-5-2.2-5-5V157.9c0-11,9-20,20-20h128c2.8,0,5,2.2,5,5v204.4c0,2.8-2.2,5-5,5h-9v-41.9c0-5.5-4.5-10-10-10h-25.9
						c-2.8,0-5,2.2-5,5S357.5,310.4,360.3,310.4L360.3,310.4z M443.2,373.6c0,5.5-4.5,10-10,10h-37v-21.3h9c8.3,0,15-6.7,15-15
						V159.7h13c5.5,0,10,4.5,10,10L443.2,373.6z"/>
				</g>
			</g>
			<g>
				<g>
					<g>
						<path class="st4" d="M327,247.4h-49.5c-2.8,0-5-2.2-5-5s2.2-5,5-5H327c2.8,0,5,2.2,5,5S329.8,247.4,327,247.4z"/>
					</g>
					<g>
						<path class="st4" d="M354,264.9h-76.5c-2.8,0-5-2.2-5-5s2.2-5,5-5H354c2.8,0,5,2.2,5,5S356.8,264.9,354,264.9z"/>
					</g>
				</g>
				<g>
					<circle class="st4" cx="279" cy="224.3" r="5"/>
					<circle class="st4" cx="295.3" cy="224.3" r="5"/>
				</g>
			</g>
			<circle class="st4" cx="215" cy="171.3" r="5"/>
		</g>
	</g>
</g>
</svg>
