<?xml version="1.0" encoding="utf-8"?>
<!-- Generator: Adobe Illustrator 25.2.0, SVG Export Plug-In . SVG Version: 6.00 Build 0)  -->
<svg version="1.1" id="Capa_1" xmlns="http://www.w3.org/2000/svg" xmlns:xlink="http://www.w3.org/1999/xlink" x="0px" y="0px"
	 viewBox="0 0 512 512" style="enable-background:new 0 0 512 512;" xml:space="preserve">
<style type="text/css">
	.st0{fill:url(#SVGID_1_);}
	.st1{opacity:0.1;fill:#FFD522;enable-background:new    ;}
	.st2{fill:#FFFFFF;}
	.st3{fill:#FFE265;}
	.st4{fill:#FFD522;}
	.st5{fill:none;stroke:#FFD522;stroke-width:10;stroke-miterlimit:10;}
</style>
<g>
	
		<linearGradient id="SVGID_1_" gradientUnits="userSpaceOnUse" x1="-31.206" y1="245.3744" x2="525.753" y2="223.2924" gradientTransform="matrix(1 0 0 -1 0 514)">
		<stop  offset="0" style="stop-color:#FFF6D2;stop-opacity:0"/>
		<stop  offset="1" style="stop-color:#FFF1B7"/>
	</linearGradient>
	<path class="st0" d="M483,171.3c-34.9-35.9-89.5-40.9-129.8-14.9c-11.5,7.4-25.4,9.9-38.7,6.9c-31.6-7-64.6-2.2-92.7,13
		c-18.9,10.3-41.9,8.5-59.6-3.8c-11.7-8.2-25.3-14-40.3-16.8c-55.4-10.2-109.3,26.6-120,81.9c-10.9,56.6,26.6,111,83.2,121.1
		c13.8,2.5,27.5,2,40.4-0.8c20.9-4.6,42.8,3.1,56.3,19.8c8.5,10.5,18.8,19.9,30.8,27.7c61.7,40.3,144.4,22.9,184.7-38.8
		c0-0.1,0.1-0.1,0.1-0.2c7.4-11.3,18.9-19.4,32.1-22.1c19.4-3.9,37.8-13.4,52.8-28.5C521.6,276.1,522,211.4,483,171.3z"/>
	<path class="st1" d="M481,329.6v-71.4c0-5.5-4.5-10-10-10h-49V139c0-8.3-6.7-15-15-15H133.8c-8.3,0-15,6.7-15,15v79.2H41
		c-5.5,0-10,4.5-10,10v101.4H481z"/>
	<path class="st2" d="M315.4,425.3h-90l11.8-46.7l6.2-24.6h54l6.2,24.6L315.4,425.3z"/>
	<path class="st2" d="M407,367.6H133.8c-8.3,0-15-6.7-15-15V157c0-8.3,6.7-15,15-15H407c8.3,0,15,6.7,15,15v195.6
		C422,360.8,415.3,367.6,407,367.6z"/>
	<path class="st3" d="M380.9,255.5h-221c-1.7,0-3-1.3-3-3v-72.3h227v72.3C383.9,254.2,382.6,255.5,380.9,255.5z"/>
	<path class="st4" d="M291.6,278.9H185.1c-2.8,0-5-2.2-5-5s2.2-5,5-5h106.5c2.8,0,5,2.2,5,5S294.4,278.9,291.6,278.9z"/>
	<path class="st4" d="M291.6,298.9H185.1c-2.8,0-5-2.2-5-5s2.2-5,5-5h106.5c2.8,0,5,2.2,5,5S294.4,298.9,291.6,298.9z"/>
	<path class="st4" d="M344.6,298.9h-16.5c-2.8,0-5-2.2-5-5s2.2-5,5-5h16.5c2.8,0,5,2.2,5,5S347.4,298.9,344.6,298.9z"/>
	<path class="st2" d="M422,180.2V157c0-8.3-6.7-15-15-15H133.8c-8.3,0-15,6.7-15,15v23.2H422z"/>
	<path class="st2" d="M118.8,327.6v25c0,8.3,6.7,15,15,15H407c8.3,0,15-6.7,15-15v-25H118.8z"/>
	<path class="st3" d="M471,425.3h-74c-5.5,0-10-4.5-10-10v-139c0-5.5,4.5-10,10-10h74c5.5,0,10,4.5,10,10v139
		C481,420.8,476.5,425.3,471,425.3z"/>
	<g>
		<path class="st2" d="M387,363.3v52c0,5.5,4.5,10,10,10h74c5.5,0,10-4.5,10-10v-52H387z"/>
		<path class="st2" d="M453,280.4l4.6-14.2h-47.3l4.6,14.2c0.7,2.1,2.6,3.5,4.8,3.5h28.6C450.4,283.9,452.4,282.5,453,280.4
			L453,280.4z"/>
		<path class="st2" d="M175,425.3H41c-5.5,0-10-4.5-10-10v-169c0-5.5,4.5-10,10-10h134c5.5,0,10,4.5,10,10v169
			C185,420.8,180.6,425.3,175,425.3z"/>
		<path class="st2" d="M185,268.9v-22.7c0-5.5-4.5-10-10-10H41c-5.5,0-10,4.5-10,10v22.7H185z"/>
	</g>
	<path class="st3" d="M88.5,405.1h-31c-1.7,0-3-1.3-3-3V294.6c0-1.7,1.3-3,3-3h31c1.7,0,3,1.3,3,3v107.5
		C91.5,403.8,90.2,405.1,88.5,405.1z"/>
	<path class="st3" d="M158.5,328.6h-50c-1.7,0-3-1.3-3-3v-31c0-1.7,1.3-3,3-3h50c1.7,0,3,1.3,3,3v31
		C161.5,327.3,160.2,328.6,158.5,328.6z"/>
	<path class="st3" d="M158.5,405.1h-50c-1.7,0-3-1.3-3-3v-56.6c0-1.7,1.3-3,3-3h50c1.7,0,3,1.3,3,3v56.6
		C161.5,403.8,160.2,405.1,158.5,405.1z"/>
	<g>
		<path class="st4" d="M149,156c-2.8,0-5,2.2-5,5v0.1c0,2.8,2.2,5,5,5s5-2.2,5-5V161C154,158.3,151.8,156,149,156z"/>
		<path class="st4" d="M164.4,156c-2.8,0-5,2.2-5,5v0.1c0,2.8,2.2,5,5,5s5-2.2,5-5V161C169.4,158.3,167.1,156,164.4,156z"/>
		<path class="st4" d="M179.7,156c-2.8,0-5,2.2-5,5v0.1c0,2.8,2.2,5,5,5s5-2.2,5-5V161C184.7,158.3,182.5,156,179.7,156z"/>
		<path class="st4" d="M471,261.2h-44V157c0-11-9-20-20-20H133.8c-11,0-20,9-20,20v51.7c0,2.8,2.2,5,5,5s5-2.2,5-5v-23.5H417v76h-20
			c-8.3,0-15,6.7-15,15V300c0,2.8,2.2,5,5,5s5-2.2,5-5v-23.8c0-2.8,2.2-5,5-5h9.7l3.5,10.8c1.3,4.1,5.2,6.9,9.5,6.9h28.6
			c4.3,0,8.2-2.8,9.5-6.9l3.5-10.8h9.7c2.8,0,5,2.2,5,5v139c0,2.8-2.2,5-5,5h-74c-2.8,0-5-2.2-5-5v-87.7c0-2.8-2.2-5-5-5H190v-76.4
			c0-8.3-6.7-15-15-15H41c-8.3,0-15,6.7-15,15v169c0,8.3,6.7,15,15,15h134c8.3,0,15-6.7,15-15v-42.7h43.5l-12,47.7h-11.4
			c-2.8,0-5,2.2-5,5s2.2,5,5,5h120.5c2.8,0,5-2.2,5-5s-2.2-5-5-5h-11.4l-12-47.7H382v42.7c0,8.3,6.7,15,15,15h74c8.3,0,15-6.7,15-15
			v-139C486,268,479.3,261.2,471,261.2L471,261.2z M123.8,175.2V157c0-5.5,4.5-10,10-10H407c5.5,0,10,4.5,10,10v18.2H123.8z
			 M448.3,278.9h-28.6l-2.5-7.7h33.6L448.3,278.9z M41,241.2h134c2.8,0,5,2.2,5,5v17.7H36v-17.7C36,243.5,38.2,241.2,41,241.2
			L41,241.2z M180,415.3c0,2.8-2.2,5-5,5H41c-2.8,0-5-2.2-5-5V273.9h144L180,415.3z M309,420.3h-77.2l12-47.7H297L309,420.3z
			 M190,362.6v-30H382v30H190z"/>
		<path class="st4" d="M57.2,257.6c2.8,0,5-2.2,5-5v-0.1c0-2.8-2.2-5-5-5s-5,2.2-5,5v0.1C52.2,255.4,54.4,257.6,57.2,257.6z"/>
		<path class="st4" d="M72.5,257.6c2.8,0,5-2.2,5-5v-0.1c0-2.8-2.2-5-5-5s-5,2.2-5,5v0.1C67.5,255.4,69.7,257.6,72.5,257.6z"/>
		<path class="st4" d="M87.8,257.6c2.8,0,5-2.2,5-5v-0.1c0-2.8-2.2-5-5-5s-5,2.2-5,5v0.1C82.8,255.4,85.1,257.6,87.8,257.6z"/>
		<path class="st4" d="M268.1,215.1l2.3-2.3l2.3,2.3c1,1,2.3,1.5,3.5,1.5s2.6-0.5,3.5-1.5c2-2,2-5.1,0-7.1l-5.8-5.8
			c-2-2-5.1-2-7.1,0l-5.8,5.8c-2,2-2,5.1,0,7.1C263,217.1,266.1,217.1,268.1,215.1L268.1,215.1z"/>
	</g>
	<path class="st2" d="M424,401.9h-14c-1.7,0-3-1.3-3-3v-85.8c0-1.7,1.3-3,3-3h14c1.7,0,3,1.3,3,3v85.8
		C427,400.6,425.7,401.9,424,401.9z"/>
	<path class="st5" d="M424,401.9h-14c-1.7,0-3-1.3-3-3v-85.8c0-1.7,1.3-3,3-3h14c1.7,0,3,1.3,3,3v85.8
		C427,400.6,425.7,401.9,424,401.9z"/>
	<path class="st3" d="M397.9,113.7c-2.8,0-5-2.2-5-5c0-3.3-2.7-6-6-6c-2.8,0-5-2.2-5-5s2.2-5,5-5c3.3,0,6-2.7,6-6c0-2.8,2.2-5,5-5
		s5,2.2,5,5c0,3.3,2.7,6,6,6c2.8,0,5,2.2,5,5s-2.2,5-5,5c-3.3,0-6,2.7-6,6C402.9,111.5,400.7,113.7,397.9,113.7z"/>
	<path class="st3" d="M457.7,243.3c-2.8,0-5-2.2-5-5c0-3.3-2.7-6-6-6c-2.8,0-5-2.2-5-5s2.2-5,5-5c3.3,0,6-2.7,6-6c0-2.8,2.2-5,5-5
		s5,2.2,5,5c0,3.3,2.7,6,6,6c2.8,0,5,2.2,5,5s-2.2,5-5,5c-3.3,0-6,2.7-6,6C462.7,241.1,460.4,243.3,457.7,243.3z"/>
	<path class="st3" d="M443.7,135.9c-1.3,0-2.6-0.5-3.5-1.5l-11-11c-2-2-2-5.1,0-7.1l11-11c2-2,5.1-2,7.1,0l11,11c2,2,2,5.1,0,7.1
		l-11,11C446.2,135.4,444.9,135.9,443.7,135.9z M439.7,119.9l3.9,3.9l3.9-3.9l-3.9-3.9L439.7,119.9z"/>
	<path class="st3" d="M73,208.3c-1.3,0-2.6-0.5-3.5-1.5l-11-11c-2-2-2-5.1,0-7.1l11-11c2-2,5.1-2,7.1,0l11,11c2,2,2,5.1,0,7.1
		l-11,11C75.6,207.8,74.3,208.3,73,208.3z M69.1,192.3l3.9,3.9l3.9-3.9l-3.9-3.9L69.1,192.3z"/>
	<path class="st4" d="M363.3,230.6c3.1,0,5.6,2.5,5.6,5.6s-2.5,5.6-5.6,5.6s-5.6-2.5-5.6-5.6S360.2,230.6,363.3,230.6z"/>
	<path class="st4" d="M363.3,213.7c3.1,0,5.6,2.5,5.6,5.6s-2.5,5.6-5.6,5.6s-5.6-2.5-5.6-5.6S360.2,213.7,363.3,213.7z"/>
	<path class="st4" d="M363.3,196.8c3.1,0,5.6,2.5,5.6,5.6s-2.5,5.6-5.6,5.6s-5.6-2.5-5.6-5.6S360.2,196.8,363.3,196.8z"/>
</g>
</svg>
